<svg
      width="90"
      height="58"
      viewBox="0 0 90 58"
      fill="none"
      xmlns="http://www.w3.org/2000/svg"
    >
      <path
        fillRule="evenodd"
        clipRule="evenodd"
        d="M20.5508 25.9668C26.5843 25.9668 31.3986 21.3734 31.3986 15.1865C31.3986 8.96832 26.553 4.40625 20.5508 4.40625C14.5487 4.40625 9.70312 8.96832 9.70312 15.1865C9.70312 21.3734 14.5173 25.9668 20.5508 25.9668ZM20.5508 6.59356C25.24 6.59356 29.0227 10.4056 29.0227 15.1865C29.0227 19.9673 25.24 23.7795 20.5508 23.7795C15.8616 23.7795 12.079 19.9673 12.079 15.1865C12.079 10.4056 15.8616 6.59356 20.5508 6.59356ZM44.747 6.93726V4.74995H32.305V6.93726H37.3694V21.3206L39.6827 20.4337V6.93726H44.747ZM37.3694 23.6449V25.5918H39.6827V22.758L37.3694 23.6449ZM58.7209 6.93726V4.74995H46.2789V6.93726H51.3433V15.9631L53.6566 15.0762V6.93726H58.7209ZM51.3433 18.2873V25.5918H53.6566V17.4004L51.3433 18.2873ZM70.4751 25.9668C76.5087 25.9668 81.3229 21.3734 81.3229 15.1865C81.3229 12.2864 80.2689 9.74675 78.535 7.8621L76.139 8.78067C77.8641 10.3483 78.9471 12.6286 78.9471 15.1865C78.9471 19.9673 75.1644 23.7795 70.4751 23.7795C65.786 23.7795 62.0033 19.9673 62.0033 15.1865C62.0033 14.845 62.0232 14.5088 62.0608 14.1783L59.6284 15.1109L59.6276 15.1865C59.6276 21.3734 64.4417 25.9668 70.4751 25.9668ZM76.6621 6.2559C74.9085 5.07787 72.7771 4.40625 70.4751 4.40625C65.3128 4.40625 61.0062 7.7811 59.9021 12.6817L62.7754 11.5801C64.1139 8.62443 67.0529 6.59356 70.4751 6.59356C71.6935 6.59356 72.8507 6.85148 73.8962 7.31639L76.6621 6.2559Z"
        fill="currentColor"
        stroke="currentColor"
        strokeWidth="0.216"
      />
      <path
        fillRule="evenodd"
        clipRule="evenodd"
        d="M9.70312 29.041V40.4943H10.9744V35.4803H11.3007L14.788 40.4943H16.3342L12.6923 35.3773C14.4273 35.257 15.5783 33.9693 15.5783 32.2178C15.5783 30.9986 14.9943 30.1229 14.3242 29.6764C13.4654 29.0926 12.3143 29.041 11.5412 29.041H9.70312ZM10.9744 30.2431H11.7474C12.2972 30.2431 12.8813 30.2774 13.3966 30.5694C14.1181 30.9814 14.3071 31.6168 14.3071 32.2522C14.3071 33.5915 13.3622 34.347 11.7818 34.347H10.9744V30.2431ZM22.9653 38.1075C22.8107 38.4509 22.553 38.8115 22.2265 39.0863C21.8143 39.4297 21.3504 39.6014 20.7663 39.6014C19.5294 39.6014 18.5159 38.6569 18.4987 37.1803H24.0476C24.082 36.2359 23.8242 35.1369 23.3776 34.5015C22.9481 33.8834 22.072 33.1965 20.6805 33.1965C18.5331 33.1965 17.2274 34.845 17.2274 36.9742C17.2274 39.6186 19.0313 40.7003 20.7492 40.7003C21.6597 40.7003 22.4671 40.4084 23.1199 39.8246C23.4806 39.4983 23.7899 39.0691 23.996 38.6742L22.9653 38.1075ZM18.5846 36.15C18.7736 35.0854 19.6325 34.2955 20.6805 34.2955C21.7284 34.2955 22.5702 35.0338 22.7763 36.15H18.5846ZM25.9373 40.4943H27.1741V36.7682C27.1741 36.253 27.2085 35.4116 27.6895 34.845C28.0503 34.4156 28.5142 34.2955 28.9436 34.2955C29.4934 34.2955 29.8712 34.5015 30.1118 34.8107C30.4038 35.1884 30.4382 35.6864 30.4382 36.1157V40.4943H31.6751V36.0813C31.6751 35.2914 31.6235 34.7075 31.2627 34.1753C30.8333 33.5399 30.0602 33.1965 29.2184 33.1965C28.0332 33.1965 27.3975 33.9005 27.1741 34.1924V33.3682H25.9373V40.4943ZM37.3442 40.7003C39.5088 40.7003 41.1235 39.1207 41.1235 36.9571C41.1235 34.7934 39.5259 33.1965 37.3442 33.1965C35.1625 33.1965 33.5647 34.7934 33.5647 36.9571C33.5647 39.1207 35.1796 40.7003 37.3442 40.7003ZM37.3442 34.2955C38.6498 34.2955 39.8523 35.2056 39.8523 36.9571C39.8523 38.6913 38.6326 39.6014 37.3442 39.6014C36.073 39.6014 34.8359 38.7085 34.8359 36.9571C34.8359 35.2227 36.0386 34.2955 37.3442 34.2955ZM41.9825 33.3682L45.487 40.9579L48.9916 33.3682H47.6173L45.487 38.1761L43.3569 33.3682H41.9825ZM55.7602 34.3813C55.4338 33.952 54.6951 33.1965 53.3207 33.1965C51.4998 33.1965 49.8505 34.4672 49.8505 36.9227C49.8505 39.4297 51.517 40.7003 53.3207 40.7003C54.5748 40.7003 55.3479 40.0307 55.7602 39.4983V40.4943H56.9971V33.3682H55.7602V34.3813ZM53.4582 34.2955C54.5576 34.2955 55.829 35.1026 55.829 36.9398C55.829 38.3479 54.9699 39.6014 53.4582 39.6014C51.9808 39.6014 51.1218 38.4509 51.1218 36.9227C51.1218 35.1884 52.2385 34.2955 53.4582 34.2955ZM61.8416 34.5015V33.3682H60.6047V30.7926H59.3678V33.3682H58.612V34.5015H59.3678V40.4943H60.6047V34.5015H61.8416ZM63.0097 33.3682V40.4943H64.2466V33.3682H63.0097ZM62.752 30.6724C62.752 31.1532 63.1471 31.5481 63.6282 31.5481C64.1092 31.5481 64.5043 31.1532 64.5043 30.6724C64.5043 30.1915 64.1092 29.7966 63.6282 29.7966C63.1471 29.7966 62.752 30.1915 62.752 30.6724ZM69.9157 40.7003C72.0803 40.7003 73.695 39.1207 73.695 36.9571C73.695 34.7934 72.0974 33.1965 69.9157 33.1965C67.734 33.1965 66.1363 34.7934 66.1363 36.9571C66.1363 39.1207 67.7511 40.7003 69.9157 40.7003ZM69.9157 34.2955C71.2213 34.2955 72.4238 35.2056 72.4238 36.9571C72.4238 38.6913 71.2042 39.6014 69.9157 39.6014C68.6445 39.6014 67.4075 38.7085 67.4075 36.9571C67.4075 35.2227 68.6101 34.2955 69.9157 34.2955ZM75.5848 40.4943H76.8217V36.7682C76.8217 36.253 76.856 35.4116 77.3371 34.845C77.6978 34.4156 78.1617 34.2955 78.5912 34.2955C79.1409 34.2955 79.5188 34.5015 79.7594 34.8107C80.0514 35.1884 80.0857 35.6864 80.0857 36.1157V40.4943H81.3226V36.0813C81.3226 35.2914 81.2711 34.7075 80.9103 34.1753C80.4809 33.5399 79.7078 33.1965 78.866 33.1965C77.6807 33.1965 77.045 33.9005 76.8217 34.1924V33.3682H75.5848V40.4943ZM32.1131 45.3881C31.5462 44.6498 30.7216 44.2034 29.6736 44.2034C28.7117 44.2034 27.8356 44.5811 27.2342 45.1649C26.7188 45.68 26.2034 46.5387 26.2034 47.9295C26.2034 49.3719 26.7532 50.2648 27.2342 50.7456C27.784 51.2951 28.6257 51.7071 29.6736 51.7071C30.9277 51.7071 31.7008 51.0375 32.1131 50.5052V51.5355C32.1131 52.1365 32.0788 52.7718 31.7179 53.3556C31.3057 54.0424 30.7044 54.3516 29.8283 54.3516C29.2785 54.3516 28.6257 54.2314 28.1103 53.6647C27.8012 53.3213 27.5606 52.789 27.5606 52.188H26.3408C26.3408 53.2355 26.7875 54.0081 27.2686 54.4889C27.7496 54.9697 28.5914 55.4505 29.8111 55.4505C31.1511 55.4505 32.1303 54.8495 32.6629 54.1283C33.35 53.2011 33.35 52.1022 33.35 51.3295V44.3751H32.1131V45.3881ZM29.8111 45.3024C30.4467 45.3024 31.0308 45.5427 31.4259 45.9376C31.8726 46.367 32.1819 47.1053 32.1819 47.9466C32.1819 48.788 31.8554 49.5437 31.3744 50.0073C30.9793 50.4022 30.4639 50.6082 29.8111 50.6082C29.1582 50.6082 28.6773 50.3851 28.2821 50.0244C27.595 49.3891 27.4747 48.5477 27.4747 47.9295C27.4747 47.3457 27.595 46.5901 28.1963 45.972C28.5398 45.6286 29.0552 45.3024 29.8111 45.3024ZM35.6864 51.5011H36.9232V47.7407C36.9232 46.573 37.1294 46.0922 37.3356 45.8175C37.5245 45.577 37.8337 45.371 38.332 45.371C38.5208 45.371 38.7785 45.4225 39.0535 45.6114L39.6376 44.4953C39.3283 44.3407 38.9161 44.2034 38.5381 44.2034C37.576 44.2034 37.0435 44.9589 36.9232 45.1478V44.3751H35.6864V51.5011ZM43.6918 51.7071C45.8564 51.7071 47.4712 50.1275 47.4712 47.9639C47.4712 45.8003 45.8735 44.2034 43.6918 44.2034C41.5101 44.2034 39.9124 45.8003 39.9124 47.9639C39.9124 50.1275 41.5272 51.7071 43.6918 51.7071ZM43.6918 45.3024C44.9974 45.3024 46.1999 46.2124 46.1999 47.9639C46.1999 49.6981 44.9802 50.6082 43.6918 50.6082C42.4206 50.6082 41.1836 49.7153 41.1836 47.9639C41.1836 46.2295 42.3862 45.3024 43.6918 45.3024ZM50.5978 44.3751H49.3609V48.6679C49.3609 49.5437 49.4469 50.1961 50.0137 50.8143C50.6494 51.4839 51.4912 51.7071 52.1954 51.7071C52.8998 51.7071 53.7416 51.4839 54.3772 50.8143C54.9441 50.1961 55.03 49.5437 55.03 48.6679V44.3751H53.7931V48.5305C53.7931 49.0285 53.7931 49.6123 53.4495 50.0587C53.2605 50.2992 52.8826 50.6082 52.1954 50.6082C51.5083 50.6082 51.1304 50.2992 50.9414 50.0587C50.5978 49.6123 50.5978 49.0285 50.5978 48.5305V44.3751ZM58.6032 50.5052C59.1359 51.192 59.9433 51.7071 61.0942 51.7071C63.2588 51.7071 64.5129 49.9386 64.5129 47.981C64.5129 46.0579 63.2759 44.2034 61.0426 44.2034C60.5274 44.2034 59.445 44.3235 58.6032 45.371V44.3751H57.3664V55.4505H58.6032V50.5052ZM60.9224 50.6082C59.4622 50.6082 58.5345 49.4234 58.5345 47.9639C58.5345 46.2467 59.7543 45.3024 60.9052 45.3024C62.0563 45.3024 63.2416 46.2295 63.2416 47.981C63.2416 49.4062 62.3654 50.6082 60.9224 50.6082Z"
        fill="currentColor"
        stroke="currentColor"
        strokeWidth="0.216"
      />
      <path
        fillRule="evenodd"
        clipRule="evenodd"
        d="M37.3691 25.5921V23.8434L39.6824 22.9565V25.5921H37.3691Z"
        fill="currentColor"
      />
      <path
        fillRule="evenodd"
        clipRule="evenodd"
        d="M51.3438 25.5921V18.486L53.657 17.5205V25.5921H51.3438Z"
        fill="currentColor"
        stroke="currentColor"
        strokeWidth="0.5669"
      />
    </svg>