<svg width="1031" height="236" viewBox="0 0 1031 236" fill="none" xmlns="http://www.w3.org/2000/svg">
<g clip-path="url(#clip0_2001_3999)">
<path fill-rule="evenodd" clip-rule="evenodd" d="M739.168 51.8682V98.8996H744.348V78.3101H745.678L759.888 98.8996H766.188L751.348 77.8871C758.418 77.3934 763.108 72.1054 763.108 64.9132C763.108 59.9068 760.728 56.3107 757.998 54.4773C754.498 52.0799 749.808 51.8682 746.658 51.8682H739.168ZM744.348 56.8044H747.498C749.738 56.8044 752.118 56.9454 754.218 58.1442C757.158 59.836 757.928 62.4451 757.928 65.0543C757.928 70.5541 754.078 73.6564 747.638 73.6564H744.348V56.8044ZM793.208 89.0984C792.578 90.5088 791.528 91.9894 790.198 93.1179C788.518 94.5278 786.628 95.2328 784.248 95.2328C779.208 95.2328 775.078 91.3546 775.008 85.291H797.618C797.758 81.4129 796.708 76.9002 794.888 74.291C793.138 71.7527 789.568 68.9322 783.898 68.9322C775.148 68.9322 769.828 75.7014 769.828 84.4445C769.828 95.3036 777.178 99.7455 784.178 99.7455C787.888 99.7455 791.178 98.5469 793.838 96.1495C795.308 94.8097 796.568 93.0471 797.408 91.4254L793.208 89.0984ZM775.358 81.0602C776.128 76.6884 779.628 73.4451 783.898 73.4451C788.168 73.4451 791.598 76.4767 792.438 81.0602H775.358ZM805.318 98.8996H810.358V83.5986C810.358 81.4833 810.498 78.0282 812.458 75.7014C813.928 73.9383 815.819 73.4451 817.569 73.4451C819.809 73.4451 821.348 74.291 822.329 75.5605C823.519 77.1115 823.659 79.1565 823.659 80.9193V98.8996H828.699V80.7781C828.699 77.5343 828.489 75.1369 827.019 72.9513C825.269 70.3423 822.119 68.9322 818.688 68.9322C813.859 68.9322 811.268 71.823 810.358 73.0216V69.6374H805.318V98.8996ZM851.799 99.7455C860.619 99.7455 867.199 93.2589 867.199 84.3743C867.199 75.4897 860.689 68.9322 851.799 68.9322C842.909 68.9322 836.399 75.4897 836.399 84.3743C836.399 93.2589 842.979 99.7455 851.799 99.7455ZM851.799 73.4451C857.119 73.4451 862.019 77.1821 862.019 84.3743C862.019 91.4958 857.049 95.2328 851.799 95.2328C846.619 95.2328 841.579 91.5664 841.579 84.3743C841.579 77.2524 846.479 73.4451 851.799 73.4451ZM870.699 69.6374L884.979 100.803L899.259 69.6374H893.66L884.979 89.3803L876.299 69.6374H870.699ZM926.84 73.7974C925.51 72.0346 922.5 68.9322 916.9 68.9322C909.48 68.9322 902.76 74.1501 902.76 84.2332C902.76 94.5278 909.55 99.7455 916.9 99.7455C922.01 99.7455 925.16 96.9958 926.84 94.8097V98.8996H931.88V69.6374H926.84V73.7974ZM917.46 73.4451C921.94 73.4451 927.12 76.7591 927.12 84.3035C927.12 90.0857 923.62 95.2328 917.46 95.2328C911.44 95.2328 907.94 90.5087 907.94 84.2332C907.94 77.1115 912.49 73.4451 917.46 73.4451ZM951.62 74.291V69.6374H946.58V59.0607H941.54V69.6374H938.46V74.291H941.54V98.8996H946.58V74.291H951.62ZM956.38 69.6374V98.8996H961.42V69.6374H956.38ZM955.33 58.567C955.33 60.5414 956.94 62.1632 958.9 62.1632C960.86 62.1632 962.47 60.5414 962.47 58.567C962.47 56.5927 960.86 54.971 958.9 54.971C956.94 54.971 955.33 56.5927 955.33 58.567ZM984.521 99.7455C993.341 99.7455 999.921 93.2589 999.921 84.3743C999.921 75.4897 993.411 68.9322 984.521 68.9322C975.631 68.9322 969.12 75.4897 969.12 84.3743C969.12 93.2589 975.7 99.7455 984.521 99.7455ZM984.521 73.4451C989.841 73.4451 994.741 77.1821 994.741 84.3743C994.741 91.4958 989.771 95.2328 984.521 95.2328C979.341 95.2328 974.3 91.5664 974.3 84.3743C974.3 77.2524 979.201 73.4451 984.521 73.4451ZM1007.62 98.8996H1012.66V83.5986C1012.66 81.4833 1012.8 78.0282 1014.76 75.7014C1016.23 73.9383 1018.12 73.4451 1019.87 73.4451C1022.11 73.4451 1023.65 74.291 1024.63 75.5605C1025.82 77.1115 1025.96 79.1565 1025.96 80.9193V98.8996H1031V80.7781C1031 77.5343 1030.79 75.1369 1029.32 72.9513C1027.57 70.3423 1024.42 68.9322 1020.99 68.9322C1016.16 68.9322 1013.57 71.823 1012.66 73.0216V69.6374H1007.62V98.8996ZM830.484 118.995C828.173 115.964 824.814 114.13 820.543 114.13C816.624 114.13 813.054 115.681 810.603 118.079C808.503 120.194 806.403 123.72 806.403 129.431C806.403 135.354 808.643 139.021 810.603 140.995C812.843 143.252 816.273 144.943 820.543 144.943C825.653 144.943 828.804 142.194 830.484 140.008V144.239C830.484 146.707 830.344 149.315 828.873 151.713C827.194 154.533 824.743 155.803 821.173 155.803C818.933 155.803 816.273 155.309 814.173 152.982C812.913 151.572 811.933 149.386 811.933 146.918H806.963C806.963 151.22 808.783 154.392 810.743 156.367C812.703 158.341 816.133 160.315 821.104 160.315C826.564 160.315 830.553 157.847 832.724 154.886C835.524 151.078 835.524 146.566 835.524 143.393V114.835H830.484V118.995ZM821.104 118.643C823.693 118.643 826.073 119.63 827.683 121.252C829.503 123.015 830.764 126.046 830.764 129.502C830.764 132.957 829.434 136.059 827.474 137.963C825.864 139.585 823.764 140.431 821.104 140.431C818.443 140.431 816.484 139.515 814.873 138.033C812.073 135.425 811.583 131.97 811.583 129.431C811.583 127.034 812.073 123.931 814.523 121.393C815.923 119.983 818.023 118.643 821.104 118.643ZM845.044 144.098H850.084V128.656C850.084 123.861 850.924 121.886 851.764 120.758C852.534 119.771 853.794 118.925 855.824 118.925C856.594 118.925 857.644 119.136 858.764 119.912L861.144 115.329C859.884 114.694 858.204 114.13 856.664 114.13C852.744 114.13 850.574 117.233 850.084 118.008V114.835H845.044V144.098ZM877.664 144.943C886.484 144.943 893.064 138.457 893.064 129.572C893.064 120.688 886.554 114.13 877.664 114.13C868.774 114.13 862.264 120.688 862.264 129.572C862.264 138.457 868.844 144.943 877.664 144.943ZM877.664 118.643C882.984 118.643 887.884 122.38 887.884 129.572C887.884 136.694 882.914 140.431 877.664 140.431C872.484 140.431 867.444 136.764 867.444 129.572C867.444 122.45 872.344 118.643 877.664 118.643ZM905.804 114.835H900.765V132.463C900.765 136.059 901.115 138.739 903.424 141.277C906.015 144.027 909.445 144.943 912.314 144.943C915.185 144.943 918.615 144.027 921.205 141.277C923.515 138.739 923.865 136.059 923.865 132.463V114.835H918.825V131.899C918.825 133.944 918.825 136.341 917.425 138.174C916.655 139.162 915.115 140.431 912.314 140.431C909.515 140.431 907.975 139.162 907.205 138.174C905.804 136.341 905.804 133.944 905.804 131.899V114.835ZM938.425 140.008C940.595 142.828 943.885 144.943 948.575 144.943C957.395 144.943 962.506 137.681 962.506 129.643C962.506 121.746 957.465 114.13 948.365 114.13C946.265 114.13 941.855 114.624 938.425 118.925V114.835H933.385V160.315H938.425V140.008ZM947.875 140.431C941.925 140.431 938.145 135.566 938.145 129.572C938.145 122.521 943.115 118.643 947.805 118.643C952.495 118.643 957.325 122.45 957.325 129.643C957.325 135.495 953.755 140.431 947.875 140.431Z" fill="#0B3D3E" stroke="#FEFCFA" stroke-width="0.131377"/>
</g>
<g clip-path="url(#clip1_2001_3999)">
<path fill-rule="evenodd" clip-rule="evenodd" d="M672.291 67.1426V113.098H677.453V92.9797H678.778L692.937 113.098H699.215L684.428 92.5663C691.473 92.0839 696.146 86.9169 696.146 79.8892C696.146 74.9973 693.775 71.4835 691.054 69.6921C687.567 67.3495 682.893 67.1426 679.754 67.1426H672.291ZM677.453 71.9659H680.591C682.824 71.9659 685.195 72.1036 687.288 73.275C690.217 74.9281 690.985 77.4776 690.985 80.0271C690.985 85.401 687.148 88.4324 680.731 88.4324H677.453V71.9659ZM726.139 103.521C725.512 104.899 724.465 106.346 723.14 107.449C721.466 108.826 719.582 109.515 717.211 109.515C712.189 109.515 708.074 105.726 708.003 99.8009H730.534C730.673 96.0115 729.627 91.602 727.813 89.0525C726.07 86.5722 722.512 83.8163 716.862 83.8163C708.143 83.8163 702.842 90.4306 702.842 98.9737C702.842 109.584 710.166 113.925 717.141 113.925C720.838 113.925 724.117 112.753 726.767 110.411C728.232 109.102 729.488 107.379 730.324 105.795L726.139 103.521ZM708.352 95.6668C709.12 91.3951 712.607 88.226 716.862 88.226C721.117 88.226 724.535 91.1882 725.372 95.6668H708.352ZM738.206 113.098H743.229V98.1472C743.229 96.0802 743.368 92.7042 745.321 90.4306C746.786 88.7079 748.67 88.226 750.413 88.226C752.645 88.226 754.179 89.0525 755.156 90.2929C756.342 91.8084 756.482 93.8067 756.482 95.5291V113.098H761.504V95.3912C761.504 92.2216 761.294 89.879 759.83 87.7434C758.086 85.1941 754.947 83.8163 751.529 83.8163C746.716 83.8163 744.135 86.6409 743.229 87.8121V84.5053H738.206V113.098ZM784.522 113.925C793.311 113.925 799.867 107.586 799.867 98.9052C799.867 90.2237 793.38 83.8163 784.522 83.8163C775.664 83.8163 769.176 90.2237 769.176 98.9052C769.176 107.586 775.733 113.925 784.522 113.925ZM784.522 88.226C789.823 88.226 794.706 91.8775 794.706 98.9052C794.706 105.864 789.753 109.515 784.522 109.515C779.36 109.515 774.338 105.933 774.338 98.9052C774.338 91.9462 779.221 88.226 784.522 88.226ZM803.355 84.5053L817.584 114.958L831.814 84.5053H826.234L817.584 103.797L808.935 84.5053H803.355ZM859.297 88.5701C857.971 86.8477 854.972 83.8163 849.391 83.8163C841.998 83.8163 835.302 88.9148 835.302 98.7673C835.302 108.826 842.068 113.925 849.391 113.925C854.484 113.925 857.622 111.238 859.297 109.102V113.098H864.319V84.5053H859.297V88.5701ZM849.95 88.226C854.414 88.226 859.576 91.4641 859.576 98.836C859.576 104.486 856.088 109.515 849.95 109.515C843.951 109.515 840.463 104.899 840.463 98.7673C840.463 91.8084 844.997 88.226 849.95 88.226ZM883.989 89.0525V84.5053H878.967V74.1706H873.944V84.5053H870.876V89.0525H873.944V113.098H878.967V89.0525H883.989ZM888.732 84.5053V113.098H893.754V84.5053H888.732ZM887.685 73.6882C887.685 75.6174 889.29 77.2021 891.243 77.2021C893.196 77.2021 894.8 75.6174 894.8 73.6882C894.8 71.759 893.196 70.1744 891.243 70.1744C889.29 70.1744 887.685 71.759 887.685 73.6882ZM916.772 113.925C925.561 113.925 932.117 107.586 932.117 98.9052C932.117 90.2237 925.63 83.8163 916.772 83.8163C907.914 83.8163 901.426 90.2237 901.426 98.9052C901.426 107.586 907.983 113.925 916.772 113.925ZM916.772 88.226C922.073 88.226 926.956 91.8775 926.956 98.9052C926.956 105.864 922.004 109.515 916.772 109.515C911.611 109.515 906.588 105.933 906.588 98.9052C906.588 91.9462 911.471 88.226 916.772 88.226ZM939.79 113.098H944.812V98.1472C944.812 96.0802 944.952 92.7042 946.905 90.4306C948.37 88.7079 950.253 88.226 951.997 88.226C954.229 88.226 955.763 89.0525 956.74 90.2929C957.926 91.8084 958.065 93.8067 958.065 95.5291V113.098H963.088V95.3912C963.088 92.2216 962.878 89.879 961.413 87.7434C959.67 85.1941 956.531 83.8163 953.113 83.8163C948.3 83.8163 945.719 86.6409 944.812 87.8121V84.5053H939.79V113.098ZM763.282 132.734C760.98 129.772 757.632 127.98 753.377 127.98C749.471 127.98 745.914 129.496 743.472 131.838C741.38 133.905 739.287 137.351 739.287 142.931C739.287 148.719 741.519 152.302 743.472 154.231C745.705 156.436 749.123 158.089 753.377 158.089C758.469 158.089 761.608 155.402 763.282 153.266V157.4C763.282 159.812 763.143 162.36 761.678 164.703C760.004 167.459 757.562 168.699 754.005 168.699C751.773 168.699 749.123 168.217 747.03 165.943C745.775 164.565 744.798 162.43 744.798 160.018H739.845C739.845 164.221 741.659 167.321 743.612 169.25C745.565 171.18 748.983 173.109 753.936 173.109C759.376 173.109 763.352 170.697 765.514 167.804C768.304 164.083 768.304 159.674 768.304 156.573V128.669H763.282V132.734ZM753.936 132.39C756.516 132.39 758.888 133.354 760.492 134.939C762.306 136.662 763.561 139.624 763.561 143C763.561 146.376 762.236 149.408 760.283 151.268C758.679 152.853 756.586 153.679 753.936 153.679C751.285 153.679 749.332 152.784 747.727 151.337C744.937 148.788 744.449 145.412 744.449 142.931C744.449 140.589 744.937 137.557 747.379 135.077C748.774 133.699 750.866 132.39 753.936 132.39ZM777.791 157.262H782.813V142.173C782.813 137.488 783.65 135.559 784.487 134.457C785.254 133.492 786.51 132.666 788.533 132.666C789.3 132.666 790.346 132.872 791.462 133.63L793.834 129.152C792.578 128.531 790.904 127.98 789.37 127.98C785.463 127.98 783.301 131.012 782.813 131.77V128.669H777.791V157.262ZM810.295 158.089C819.084 158.089 825.641 151.751 825.641 143.069C825.641 134.388 819.154 127.98 810.295 127.98C801.437 127.98 794.95 134.388 794.95 143.069C794.95 151.751 801.506 158.089 810.295 158.089ZM810.295 132.39C815.596 132.39 820.479 136.042 820.479 143.069C820.479 150.028 815.527 153.679 810.295 153.679C805.134 153.679 800.111 150.097 800.111 143.069C800.111 136.11 804.994 132.39 810.295 132.39ZM838.336 128.669H833.313V145.894C833.313 149.408 833.662 152.026 835.964 154.506C838.545 157.193 841.963 158.089 844.822 158.089C847.682 158.089 851.1 157.193 853.681 154.506C855.983 152.026 856.332 149.408 856.332 145.894V128.669H851.31V145.343C851.31 147.341 851.31 149.683 849.914 151.475C849.147 152.439 847.613 153.679 844.822 153.679C842.032 153.679 840.498 152.439 839.731 151.475C838.336 149.683 838.336 147.341 838.336 145.343V128.669ZM870.84 153.266C873.003 156.022 876.281 158.089 880.954 158.089C889.743 158.089 894.835 150.993 894.835 143.138C894.835 135.421 889.813 127.98 880.745 127.98C878.653 127.98 874.258 128.462 870.84 132.666V128.669H865.818V173.109H870.84V153.266ZM880.257 153.679C874.328 153.679 870.561 148.926 870.561 143.069C870.561 136.179 875.514 132.39 880.187 132.39C884.861 132.39 889.673 136.11 889.673 143.138C889.673 148.856 886.116 153.679 880.257 153.679Z" fill="#0B3D3E" stroke="#FEFCFA" stroke-width="0.131377"/>
</g>
<path fill-rule="evenodd" clip-rule="evenodd" d="M108.091 214.51C167.656 214.51 215.184 169.023 215.184 107.755C215.184 46.1774 167.347 1 108.091 1C48.8367 1 1 46.1774 1 107.755C1 169.023 48.5273 214.51 108.091 214.51ZM108.091 22.6605C154.385 22.6605 191.729 60.4107 191.729 107.755C191.729 155.099 154.385 192.85 108.091 192.85C61.7988 192.85 24.455 155.099 24.455 107.755C24.455 60.4107 61.7988 22.6605 108.091 22.6605ZM346.964 26.0641V4.40363H224.133V26.0641H274.13V168.5L296.968 159.717V26.0641H346.964ZM274.13 191.517V210.797H296.968V182.734L274.13 191.517ZM484.918 26.0641V4.40363H362.087V26.0641H412.085V115.446L434.922 106.663V26.0641H484.918ZM412.085 138.462V210.797H434.922V129.679L412.085 138.462ZM600.96 214.51C660.525 214.51 708.052 169.023 708.052 107.755C708.052 79.0357 697.646 53.886 680.529 35.2227L656.875 44.3191C673.905 59.8426 684.597 82.4248 684.597 107.755C684.597 155.099 647.253 192.85 600.96 192.85C554.667 192.85 517.323 155.099 517.323 107.755C517.323 104.373 517.52 101.044 517.891 97.7709L493.877 107.006L493.869 107.755C493.869 169.023 541.396 214.51 600.96 214.51ZM662.039 19.3167C644.727 7.65088 623.686 1 600.96 1C549.996 1 507.48 34.4206 496.579 82.9507L524.946 72.0414C538.159 42.7719 567.174 22.6605 600.96 22.6605C612.988 22.6605 624.412 25.2147 634.733 29.8186L662.039 19.3167Z" fill="#0B3D3E" stroke="#0B3D3E" stroke-width="0.23175"/>
<defs>
<clipPath id="clip0_2001_3999">
<rect width="291.833" height="51.5" fill="white" transform="translate(739.168 51.8682)"/>
</clipPath>
<clipPath id="clip1_2001_3999">
<rect width="159.865" height="49.3542" fill="white" transform="translate(737.021 123.753)"/>
</clipPath>
</defs>
</svg>
