<svg xmlns="http://www.w3.org/2000/svg" version="1.1" xmlns:xlink="http://www.w3.org/1999/xlink" xmlns:svgjs="http://svgjs.dev/svgjs" width="1000" height="1000"><g clip-path="url(#SvgjsClipPath1016)"><rect width="1000" height="1000" fill="#ffffff"></rect><g transform="matrix(0.7707129094412332,0,0,0.7707129094412332,100,364.73988439306356)"><svg xmlns="http://www.w3.org/2000/svg" version="1.1" xmlns:xlink="http://www.w3.org/1999/xlink" xmlns:svgjs="http://svgjs.dev/svgjs" width="1038" height="351"><svg width="1038" height="351" viewBox="0 0 1038 351" fill="none" xmlns="http://www.w3.org/2000/svg">
<g clip-path="url(#clip0_444_17659)">
<path fill-rule="evenodd" clip-rule="evenodd" d="M157.217 331.978C244.663 331.978 314.436 265.294 314.436 175.477C314.436 85.2063 244.208 18.9775 157.217 18.9775C70.2275 18.9775 0 85.2063 0 175.477C0 265.294 69.7733 331.978 157.217 331.978ZM157.217 50.7313C225.179 50.7313 280.002 106.072 280.002 175.477C280.002 244.882 225.179 300.224 157.217 300.224C89.2567 300.224 34.4335 244.882 34.4335 175.477C34.4335 106.072 89.2567 50.7313 157.217 50.7313ZM507.898 55.7208V23.9672H327.574V55.7208H400.973V264.528L434.5 251.652V55.7208H507.898ZM400.973 298.27V326.533H434.5V285.395L400.973 298.27ZM710.425 55.7208V23.9672H530.1V55.7208H603.5V186.751L637.026 173.876V55.7208H710.425ZM603.5 220.492V326.533H637.026V207.617L603.5 220.492ZM880.781 331.978C968.227 331.978 1038 265.294 1038 175.477C1038 133.376 1022.72 96.5069 997.594 69.147L962.868 82.4821C987.87 105.239 1003.57 138.344 1003.57 175.477C1003.57 244.882 948.743 300.224 880.781 300.224C812.82 300.224 757.997 244.882 757.997 175.477C757.997 170.52 758.286 165.639 758.831 160.841L723.577 174.379L723.565 175.477C723.565 265.294 793.337 331.978 880.781 331.978ZM970.45 45.8293C945.034 28.7275 914.144 18.9775 880.781 18.9775C805.962 18.9775 743.546 67.9711 727.544 139.115L769.187 123.122C788.586 80.2139 831.181 50.7313 880.781 50.7313C898.439 50.7313 915.21 54.4756 930.363 61.2248L970.45 45.8293Z" fill="#0B3D3E" stroke="#0B3D3E" stroke-width="0.216"></path>
<path fill-rule="evenodd" clip-rule="evenodd" d="M400 325.978V300.765L434 287.978V325.978H400Z" fill="#0B3D3E"></path>
<path fill-rule="evenodd" clip-rule="evenodd" d="M604 325.978V223.852L637 209.978V325.978H604Z" fill="#0B3D3E" stroke="#0B3D3E" stroke-width="0.5669"></path>
</g>
<defs>
<clipPath id="clip0_444_17659">
<rect width="1038" height="351" fill="white"></rect>
</clipPath>
<clipPath id="SvgjsClipPath1016"><rect width="1000" height="1000" x="0" y="0" rx="350" ry="350"></rect></clipPath></defs>
</svg></svg></g></g></svg>