<svg width="303" height="65" viewBox="0 0 303 65" fill="none" xmlns="http://www.w3.org/2000/svg">
<g clip-path="url(#clip0_2005_5338)">
<path d="M43.011 45.6466L50.1424 28.3139C49.5852 26.972 49.1395 25.7419 48.6938 24.5118C47.0224 28.6493 45.351 32.675 43.6796 36.8125L41.451 42.0682L27.2997 8.40918H1.89427V9.86289C1.89427 11.2048 2.89712 11.2048 4.4571 11.3166C6.57422 11.4284 10.8085 11.7639 10.8085 16.796V51.0141C10.8085 61.0783 5.01424 61.6374 2.45141 61.8611C0.89142 62.0847 0 62.1965 0 63.5384V64.8803H24.1798V63.5384C24.1798 62.1965 23.1769 62.0847 21.7284 61.8611C19.1655 61.5256 13.5942 60.7428 13.5942 51.3496V20.7098L27.8569 53.027L28.6369 52.9151C29.194 52.9151 29.6397 52.8033 30.0854 52.8033H31.534C35.0997 52.8033 38.2196 53.5861 40.5596 54.7043C43.2339 56.0462 45.1281 57.8354 46.0196 59.6246L46.4653 60.631L49.0281 59.6246L43.011 45.6466Z" fill="#0A0A0A"/>
<path d="M83.1252 26.0773C84.2395 26.301 85.7994 27.4192 86.0223 26.8601C86.0223 23.1699 83.348 18.5851 81.3423 16.125C82.1223 16.4605 82.7909 16.6841 83.5709 17.0196C82.6795 13.6649 80.7852 10.6456 78.2224 8.18551L82.0109 9.30375C80.6738 5.94903 73.431 -0.424938 66.411 0.0223579C67.8596 0.693302 69.1967 1.81154 70.1996 2.70613C57.3854 -0.984058 47.9141 14.3358 52.7055 26.7483C56.0483 35.3587 65.6311 40.0553 70.1996 48.7776C65.9653 43.0746 58.7226 39.8317 53.9312 34.576V55.8225C53.9312 61.1901 50.6998 61.6374 49.0284 61.861C47.6912 62.0847 46.7998 62.1965 46.7998 63.5384V64.8803H80.7852V63.5384C80.7852 62.1965 79.7824 62.0847 78.3338 61.9728C76.7738 61.861 74.0995 61.5255 73.0967 58.5063C80.7852 45.1992 72.4281 38.8253 67.8596 31.5567C63.5139 24.6236 68.5282 21.7162 70.8681 23.5054C71.4253 23.9527 71.871 24.7355 72.0938 25.9655C72.7624 25.8537 75.5481 25.8537 76.9967 25.9655C73.6538 26.9719 71.4253 28.8729 71.3139 30.3267C70.9796 32.7868 73.431 35.3587 77.5538 36.1415C77.5538 36.5888 77.4424 37.1479 77.4424 37.5952C79.3366 36.7006 81.4538 34.0169 80.3395 32.4513C78.5566 31.3331 73.8767 33.3459 73.6538 30.103C73.0967 30.103 72.8738 30.2148 72.4281 30.2148C75.1024 27.1956 76.3281 30.9976 79.0024 31.4449C80.5623 31.7804 83.9052 30.8858 83.2366 28.7611C83.1252 28.3138 82.7909 27.8665 82.568 27.5311C81.8995 26.5246 82.0109 25.8537 83.1252 26.0773ZM67.3025 8.6328C69.4196 9.30375 71.091 10.7575 71.5367 12.6585C57.9426 5.50173 53.2626 24.8473 65.5196 35.9179C56.494 28.4256 54.2655 20.1507 56.7169 14.0004C59.9483 5.94903 70.5339 2.03519 77.3309 12.323C75.2138 10.5338 69.8653 7.85004 67.3025 8.6328ZM75.3252 16.9078C76.551 17.0196 77.6652 16.796 78.4452 16.6841C79.0024 16.5723 79.6709 16.4605 79.6709 17.3551C79.6709 17.6905 79.6709 17.9142 79.5595 18.2497C79.5595 18.8088 79.8938 19.1443 80.3395 19.7034C78.3338 19.3679 76.8852 18.4733 75.3252 16.9078Z" fill="#0A0A0A"/>
<path d="M126.832 24.4061C125.631 24.4061 125.104 24.935 125.104 25.7872V39.4812C125.104 40.3334 125.631 40.8624 126.832 40.8624V42.9194H123.582C122.82 42.9194 122.293 42.5374 122.03 42.0085C121.795 42.5374 121.239 42.9194 120.478 42.9194H117.227V40.8624C118.428 40.8624 118.984 40.3334 118.984 39.4812V27.2859L112.279 42.9194H110.639L103.318 27.8737V39.4812C103.318 40.3334 103.875 40.8624 105.075 40.8624V42.9194H103.845C103.084 42.9194 102.528 42.5374 102.264 42.0085C102.03 42.5374 101.474 42.9194 100.712 42.9194H99.4824V40.8624C100.683 40.8624 101.21 40.3334 101.21 39.4812V25.6403C101.151 24.8763 100.595 24.4061 99.4824 24.4061V22.3491H106.774L112.981 35.8961L118.984 22.3491H126.832V24.4061ZM107.945 32.3698L111.459 38.8347L108.56 32.0759L105.075 25.6109L107.945 32.3698ZM122.03 39.4812L122.381 32.6342L122.03 25.7872L121.678 32.6342L122.03 39.4812Z" fill="#0A0A0A"/>
<path d="M149.467 39.0111C149.994 40.4804 150.755 40.8624 151.839 40.8624V42.9194H142.205V40.8624C143.318 40.8624 143.786 40.3334 143.435 39.4519C143.376 39.2755 142.849 37.8356 142.146 35.8961H134.709C134.357 36.8659 134.064 37.6005 133.918 37.9532C133.098 39.9808 134.679 40.8624 136.993 40.8624V42.9194H128.296V40.8624C129.496 40.8624 130.433 40.1865 131.341 38.8641C132.22 37.5711 136.085 27.0802 136.407 26.1693C136.788 25.0526 136.378 24.4061 134.826 24.4061V22.3491L143.288 22.3491C143.288 22.3491 148.969 37.6005 149.467 39.0111ZM135.529 33.7803H141.356C140.302 30.9592 139.101 27.7855 138.486 26.0811C137.608 28.3732 136.466 31.3706 135.529 33.7803ZM143.903 32.7518L146.919 39.4812L144.547 32.5167L141.561 25.7872L143.903 32.7518Z" fill="#0A0A0A"/>
<path d="M174.679 24.4057C173.478 24.4057 172.922 24.9346 172.922 25.7868V39.4808C172.922 40.333 173.478 40.862 174.679 40.862V42.919H171.429C170.667 42.919 170.14 42.537 169.877 42.008C169.613 42.537 169.086 42.919 168.325 42.919H165.074V40.862C166.275 40.862 166.802 40.333 166.802 39.4808V24.4644L161.707 24.4644C161.473 28.6667 160.946 37.747 160.653 39.4808C159.569 45.6813 151.81 43.5361 152.161 39.569C152.278 38.2466 153.098 37.2475 154.445 37.2769C155.704 37.2769 156.67 38.1291 156.729 39.3927C156.758 40.4212 156.055 41.1852 155.441 41.1852C155.968 41.5085 158.281 41.4497 158.574 39.2457C158.808 37.365 159.452 26.6978 159.511 25.7868C159.569 24.8759 158.954 24.4057 157.754 24.4057V22.3486L174.679 22.3486V24.4057ZM169.877 39.4808L170.228 32.6338L169.877 25.7868L169.525 32.6338L169.877 39.4808Z" fill="#0A0A0A"/>
<path d="M189.466 31.2531C193.566 31.2531 196.172 33.1926 196.172 37.101C196.172 41.0387 193.566 42.9194 189.466 42.9194H177.021V40.8624C178.222 40.8624 178.778 40.3334 178.778 39.4519V25.7872C178.778 24.935 178.222 24.3767 177.021 24.3767V22.3491H186.655V24.3767C185.455 24.3767 184.898 24.935 184.898 25.7872V31.2531H189.466ZM181.824 39.4519L182.175 32.6342L181.824 25.7872L181.502 32.6342L181.824 39.4519ZM185.953 40.8036C188.734 40.8036 190.403 40.0396 190.403 37.101C190.403 34.1917 188.734 33.3689 185.953 33.3689H184.898V40.8036H185.953ZM191.106 41.5383C192.834 40.6273 193.829 38.9523 193.829 37.101C193.829 35.2496 192.834 33.604 191.106 32.6636C192.629 34.0154 193.156 35.279 193.156 37.101C193.156 38.9229 192.629 40.1865 191.106 41.5383Z" fill="#0A0A0A"/>
<path d="M198.222 22.3491L218.251 22.3491V28.6377H217.021C217.021 26.6982 216.084 24.3767 213.829 24.3767L211.311 24.3767V39.4519C211.311 40.3334 211.838 40.8624 213.038 40.8624V42.9194H209.788C209.027 42.9194 208.5 42.5374 208.236 42.0085C207.973 42.5374 207.446 42.9194 206.684 42.9194H203.434V40.8624C204.634 40.8624 205.191 40.3334 205.191 39.4519V24.3767H202.643C200.389 24.3767 199.452 26.6982 199.452 28.6377H198.222V22.3491ZM208.236 39.4519L208.588 32.6342L208.236 25.7872L207.885 32.6342L208.236 39.4519Z" fill="#0A0A0A"/>
<path d="M232.276 24.4061H228.47V31.8114C228.762 31.782 229.114 31.7527 229.495 31.7233C231.632 31.4294 232.13 29.4311 232.13 27.9912H233.36V37.2773H232.13C232.13 35.808 231.632 33.8097 229.495 33.5452C229.114 33.5158 228.762 33.4571 228.47 33.4571V40.8624H232.276C234.531 40.8624 235.468 38.5409 235.468 36.6308H236.698V42.9194H220.593V40.8624C221.793 40.8624 222.35 40.3334 222.35 39.4812V25.7872C222.35 24.935 221.793 24.4061 220.593 24.4061V22.3491L236.698 22.3491V28.6377H235.468C235.468 26.7276 234.531 24.4061 232.276 24.4061ZM225.395 39.4812L225.746 32.6342L225.395 25.7872L225.044 32.6342L225.395 39.4812Z" fill="#0A0A0A"/>
<path d="M249.7 22.3491C253.799 22.3491 256.405 24.6706 256.405 28.6083C256.405 32.5167 253.799 34.8676 249.7 34.8676H246.918V39.4519C246.918 40.3334 247.474 40.8624 248.675 40.8624V42.9194H245.425C244.663 42.9194 244.107 42.5374 243.873 42.0085C243.609 42.5374 243.053 42.9194 242.291 42.9194H239.041V40.8624C240.242 40.8624 240.798 40.3334 240.798 39.4519V25.7872C240.798 24.935 240.242 24.3767 239.041 24.3767V22.3491H249.7ZM243.873 39.4519L244.195 32.6342L243.873 25.7872L243.521 32.6342L243.873 39.4519ZM246.918 32.7224C249.26 32.5167 250.637 31.2531 250.637 28.6083C250.637 25.9342 249.26 24.7 246.918 24.4943V32.7224ZM251.427 33.0457C253.126 32.1053 254.151 30.4597 254.151 28.6083C254.151 26.757 253.126 25.082 251.427 24.171C252.95 25.5228 253.477 26.7864 253.477 28.6083C253.477 30.4303 252.95 31.6939 251.427 33.0457Z" fill="#0A0A0A"/>
<path d="M278.835 24.4061C277.635 24.4061 277.078 24.935 277.078 25.7872V39.4812C277.078 40.3334 277.635 40.8624 278.835 40.8624V42.9194H275.585C274.824 42.9194 274.297 42.5374 274.033 42.0085C273.77 42.5374 273.243 42.9194 272.481 42.9194H269.231V40.8624C270.431 40.8624 270.959 40.3334 270.959 39.4812V33.6922H266.303V39.4812C266.303 40.3334 266.859 40.8624 268.06 40.8624V42.9194H264.809C264.048 42.9194 263.492 42.5374 263.257 42.0085C262.994 42.5374 262.437 42.9194 261.676 42.9194H258.455V40.8624C259.626 40.8624 260.183 40.3334 260.183 39.4812V25.7872C260.183 24.935 259.626 24.4061 258.455 24.4061V22.3491H268.06V24.4061C266.859 24.4061 266.303 24.935 266.303 25.7872V31.5763H270.959V25.7872C270.959 24.935 270.431 24.4061 269.231 24.4061V22.3491L278.835 22.3491V24.4061ZM263.257 39.4812L263.579 32.6342L263.257 25.7872L262.906 32.6342L263.257 39.4812ZM274.033 39.4812L274.385 32.6342L274.033 25.7872L273.682 32.6342L274.033 39.4812Z" fill="#0A0A0A"/>
<path d="M292.129 21.9667C299.743 21.9667 303.081 27.2562 303.081 32.6633C303.081 38.0997 299.743 43.3599 292.129 43.3599C284.516 43.3599 281.178 38.0997 281.178 32.6633C281.178 27.2562 284.516 21.9667 292.129 21.9667ZM287.239 40.2155C285.599 38.0116 284.369 36.1015 284.369 32.6339C284.369 29.1369 285.599 27.2268 287.239 25.0228C285.482 26.5509 283.696 29.2251 283.696 32.6339C283.696 36.0427 285.482 38.7168 287.239 40.2155ZM292.129 41.2441C295.233 41.2441 296.551 37.4826 296.551 32.6633C296.551 27.8733 295.233 24.0825 292.129 24.0825C289.025 24.0825 287.708 27.8733 287.708 32.6633C287.708 37.4826 289.025 41.2441 292.129 41.2441ZM297.019 40.2155C298.776 38.7168 300.562 36.0427 300.562 32.6339C300.562 29.2251 298.776 26.5509 297.019 25.0228C298.659 27.2268 299.889 29.1369 299.889 32.6339C299.889 36.1015 298.659 38.0116 297.019 40.2155Z" fill="#0A0A0A"/>
</g>
<defs>
<clipPath id="clip0_2005_5338">
<rect width="303" height="65" fill="white"/>
</clipPath>
</defs>
</svg>
